<svg xmlns="http://www.w3.org/2000/svg" viewBox="0 0 1024 1024">
  <defs><linearGradient id="kkGrad" x1="0" y1="0" x2="1024" y2="1024" gradientUnits="userSpaceOnUse">
    <stop stop-color="#5b21b6"/>
    <stop offset="0.45" stop-color="#9333ea"/>
    <stop offset="1" stop-color="#db2777"/></linearGradient></defs>
  <rect width="1024" height="1024" fill="url(#kkGrad)"/>
  
  <g transform="rotate(-18 214 286)"><path d="M 164,237.01999999999998 A 50,50 0 1,1 214,287.02 L 214,327.02" fill="none" stroke="#ffffff" stroke-width="36" stroke-linecap="round" stroke-linejoin="round"/><circle cx="214" cy="382.82" r="20.160000000000004" fill="#ffffff"/></g>
  <g transform="rotate(14 826 716)"><path d="M 783,673.8772 A 43,43 0 1,1 826,716.8772 L 826,751.2772" fill="none" stroke="#ffffff" stroke-width="30.959999999999997" stroke-linecap="round" stroke-linejoin="round"/><circle cx="826" cy="799.2652" r="17.337600000000002" fill="#ffffff"/></g>
  <g transform="rotate(-15 512 721.76)"><rect x="314" y="236" width="396" height="528" rx="56" fill="#ffffff" fill-opacity="0.5"/></g>
  <g transform="rotate(6 512 721.76)"><rect x="314" y="236" width="396" height="528" rx="56" fill="#ffffff"/>
    <path d="M 418.94,408.5833999999999 A 93.05999999999999,93.05999999999999 0 1,1 512,501.64339999999993 L 512,576.0913999999999" fill="none" stroke="#7c1fd4" stroke-width="67.32000000000001" stroke-linecap="round" stroke-linejoin="round"/><circle cx="512" cy="680.4373999999999" r="37.699200000000005" fill="#7c1fd4"/></g>
</svg>
